<?xml version="1.0" standalone="no"?>
<!DOCTYPE svg PUBLIC "-//W3C//DTD SVG 20010904//EN"
 "http://www.w3.org/TR/2001/REC-SVG-20010904/DTD/svg10.dtd">
<svg version="1.0" xmlns="http://www.w3.org/2000/svg"
 width="900.000000pt" height="900.000000pt" viewBox="0 0 900.000000 900.000000"
 preserveAspectRatio="xMidYMid meet">

<g transform="translate(0.000000,900.000000) scale(0.100000,-0.100000)"
fill="#000000" stroke="none">
<path d="M2981 8289 c-84 -11 -190 -43 -266 -81 -142 -71 -288 -212 -358 -347
-20 -36 -124 -286 -231 -556 -108 -269 -200 -493 -204 -497 -5 -5 -289 -55
-633 -113 -343 -57 -651 -112 -683 -121 -78 -21 -207 -86 -276 -139 -150 -117
-254 -273 -303 -456 l-22 -84 0 -2240 c0 -2540 -9 -2288 86 -2480 110 -224
301 -380 549 -447 l85 -23 3770 0 3770 0 93 24 c247 63 447 226 556 454 89
185 81 -49 81 2477 l0 2235 -22 83 c-50 185 -161 349 -318 469 -53 40 -188
108 -256 127 -30 9 -337 63 -683 121 -347 58 -633 108 -638 113 -5 5 -96 228
-204 498 -107 269 -211 518 -231 554 -110 201 -296 346 -530 413 l-78 22
-1495 1 c-822 1 -1524 -2 -1559 -7z m3035 -578 c58 -26 112 -77 138 -130 13
-25 132 -320 266 -656 134 -335 246 -614 251 -619 8 -9 102 -25 1009 -176 372
-62 568 -98 597 -112 49 -23 115 -91 140 -145 17 -36 18 -143 18 -2213 l0
-2175 -24 -52 c-26 -60 -83 -116 -145 -144 -40 -18 -143 -19 -3766 -19 -3623
0 -3726 1 -3766 19 -62 28 -119 84 -145 144 l-24 52 0 2175 0 2175 27 51 c30
58 91 117 143 138 19 8 380 72 802 141 423 70 774 130 782 133 7 4 127 291
265 637 139 347 260 644 269 661 21 40 80 92 131 115 39 18 103 19 1516 19
1413 0 1477 -1 1516 -19z"/>
<path d="M4300 6319 c-438 -41 -843 -201 -1183 -468 -123 -96 -326 -301 -411
-414 -314 -420 -471 -915 -453 -1427 13 -364 87 -647 250 -965 342 -662 990
-1112 1732 -1200 796 -96 1571 237 2063 883 619 812 597 1965 -51 2767 -90
111 -283 297 -397 382 -445 333 -1007 494 -1550 442z m317 -559 c615 -48 1145
-408 1404 -955 224 -473 219 -1017 -13 -1480 -239 -477 -676 -805 -1203 -905
-456 -86 -936 27 -1321 311 -86 63 -237 212 -309 304 -401 514 -474 1197 -190
1780 261 536 779 892 1375 944 133 12 122 12 257 1z"/>
<path d="M4297 5184 c-218 -39 -410 -139 -577 -300 -214 -206 -340 -490 -340
-763 0 -68 4 -93 20 -118 51 -84 180 -83 235 1 11 17 20 62 26 128 18 219 94
390 238 536 147 149 329 232 554 251 100 8 134 22 162 65 42 63 22 158 -40
196 -39 24 -157 26 -278 4z"/>
</g>
</svg>
