<?xml version="1.0" standalone="no"?>
<!DOCTYPE svg PUBLIC "-//W3C//DTD SVG 20010904//EN"
 "http://www.w3.org/TR/2001/REC-SVG-20010904/DTD/svg10.dtd">
<svg version="1.0" xmlns="http://www.w3.org/2000/svg"
 width="920.000000pt" height="920.000000pt" viewBox="0 0 920.000000 920.000000"
 preserveAspectRatio="xMidYMid meet">

<g transform="translate(0.000000,920.000000) scale(0.100000,-0.100000)"
fill="#000000" stroke="none">
<path d="M2605 8116 c-59 -28 -117 -85 -142 -141 -16 -35 -19 -80 -23 -350 -5
-299 -6 -312 -29 -363 -27 -60 -95 -126 -150 -144 -27 -9 -289 -14 -1051 -18
l-1015 -5 -41 -22 c-59 -31 -121 -106 -139 -166 -13 -44 -15 -385 -15 -2762 0
-2389 2 -2717 15 -2762 20 -68 88 -143 157 -174 l53 -24 4305 0 4305 0 56 26
c72 34 123 88 149 156 20 54 20 62 18 2796 -3 2623 -4 2743 -21 2775 -28 51
-86 111 -131 135 l-41 22 -1020 5 -1020 5 -58 28 c-60 30 -94 67 -124 133 -15
34 -19 81 -23 349 -5 287 -7 313 -26 356 -31 66 -78 115 -139 144 l-54 25
-1873 0 -1873 0 -50 -24z m2214 -1331 c566 -70 1052 -305 1454 -703 541 -534
804 -1272 723 -2027 -60 -555 -294 -1053 -686 -1459 -577 -596 -1402 -862
-2223 -715 -380 68 -740 226 -1061 468 -131 99 -372 339 -467 466 -257 343
-415 715 -481 1128 -32 201 -32 559 0 757 67 412 222 778 468 1110 98 132 359
395 485 488 357 264 733 421 1139 476 63 9 126 17 140 20 71 10 398 4 509 -9z
m3385 -328 c91 -45 165 -122 209 -214 43 -93 50 -216 17 -312 -62 -184 -222
-301 -413 -301 -130 0 -223 39 -314 132 -91 93 -128 195 -121 331 9 177 122
323 297 384 56 20 81 23 159 20 82 -4 101 -8 166 -40z"/>
<path d="M4290 6209 c-419 -65 -737 -213 -1046 -486 -189 -167 -386 -456 -487
-713 -157 -399 -168 -878 -31 -1290 195 -586 684 -1056 1274 -1225 163 -47
282 -65 460 -72 319 -12 603 47 888 183 316 150 598 398 787 694 109 170 214
425 255 622 48 231 52 523 10 748 -77 417 -312 825 -630 1093 -290 244 -613
390 -981 442 -113 16 -407 18 -499 4z"/>
</g>
</svg>
